HIERARCHY
ROOT Hips
{
	OFFSET 56.877701 -32.693596 43.373703
	CHANNELS 6 Xposition Yposition Zposition Zrotation Xrotation Yrotation
	JOINT Chest
	{
		OFFSET -0.779999 1.005800 5.403099
		CHANNELS 6 Xposition Yposition Zposition Zrotation Xrotation Yrotation
		JOINT Chest2
		{
			OFFSET 0.000000 0.000000 4.236801
			CHANNELS 6 Xposition Yposition Zposition Zrotation Xrotation Yrotation
			JOINT Neck
			{
				OFFSET 0.000000 0.000000 9.874401
				CHANNELS 6 Xposition Yposition Zposition Zrotation Xrotation Yrotation
				JOINT Head
				{
					OFFSET 0.000000 0.000002 2.173893
					CHANNELS 6 Xposition Yposition Zposition Zrotation Xrotation Yrotation
					End Site
					{
						OFFSET 0.000000 0.000000 6.508102
					}
				}
			}
			JOINT LeftCollar
			{
				OFFSET 2.681599 -0.377600 5.432499
				CHANNELS 6 Xposition Yposition Zposition Zrotation Xrotation Yrotation
				JOINT LeftShoulder
				{
					OFFSET 5.161499 0.000000 0.000000
					CHANNELS 6 Xposition Yposition Zposition Zrotation Xrotation Yrotation
					JOINT LeftElbow
					{
						OFFSET 0.000000 0.000000 -10.869099
						CHANNELS 6 Xposition Yposition Zposition Zrotation Xrotation Yrotation
						JOINT LeftWrist
						{
							OFFSET 0.000000 0.000000 -13.344799
							CHANNELS 6 Xposition Yposition Zposition Zrotation Xrotation Yrotation
							End Site
							{
								OFFSET 0.000000 0.000000 -2.173901
							}
						}
					}
				}
			}
			JOINT RightCollar
			{
				OFFSET -2.381901 -1.419600 6.136600
				CHANNELS 6 Xposition Yposition Zposition Zrotation Xrotation Yrotation
				JOINT RightShoulder
				{
					OFFSET -4.550499 0.000000 0.000000
					CHANNELS 6 Xposition Yposition Zposition Zrotation Xrotation Yrotation
					JOINT RightElbow
					{
						OFFSET 0.000000 0.000000 -11.106499
						CHANNELS 6 Xposition Yposition Zposition Zrotation Xrotation Yrotation
						JOINT RightWrist
						{
							OFFSET 0.000000 0.000000 -12.874298
							CHANNELS 6 Xposition Yposition Zposition Zrotation Xrotation Yrotation
							End Site
							{
								OFFSET 0.000000 0.000000 -2.173901
							}
						}
					}
				}
			}
		}
	}
	JOINT LeftHip
	{
		OFFSET 2.431900 0.469601 -2.489399
		CHANNELS 6 Xposition Yposition Zposition Zrotation Xrotation Yrotation
		JOINT LeftKnee
		{
			OFFSET 0.000000 -0.000004 -18.200201
			CHANNELS 6 Xposition Yposition Zposition Zrotation Xrotation Yrotation
			JOINT LeftAnkle
			{
				OFFSET 0.000000 0.000000 -16.279900
				CHANNELS 6 Xposition Yposition Zposition Zrotation Xrotation Yrotation
				End Site
				{
					OFFSET 0.000000 -8.394100 0.000000
				}
			}
		}
	}
	JOINT RightHip
	{
		OFFSET -1.987999 -0.073502 -2.713001
		CHANNELS 6 Xposition Yposition Zposition Zrotation Xrotation Yrotation
		JOINT RightKnee
		{
			OFFSET 0.000000 -0.000004 -19.547802
			CHANNELS 6 Xposition Yposition Zposition Zrotation Xrotation Yrotation
			JOINT RightAnkle
			{
				OFFSET 0.000000 0.000000 -14.881199
				CHANNELS 6 Xposition Yposition Zposition Zrotation Xrotation Yrotation
				End Site
				{
					OFFSET 0.000000 -7.922699 0.000000
				}
			}
		}
	}
}
MOTION
Frames: 4
Frame Time: 0.041667
73.452301 -30.249794 43.781006 4371.176378 12.183855 -0.195617 -0.779995 1.005806 5.403090 -20.548189 -23.211739 3.387915 0.000009 -0.000006 4.236801 6.668426 2.341604 0.371762 -0.000005 -0.000004 9.874399 24.962656 16.133979 -20.849084 -0.000001 0.000001 2.173899 1.056673 3.814309 -0.870146 2.681595 -0.377604 5.432503 -1.165431 -7.623819 -28.145886 5.161508 -0.000010 0.000003 138.960089 -110.313081 70.882651 -0.000002 0.000006 -10.869118 61.717323 -18.801378 47.557723 0.000006 0.000009 -13.344790 23.073026 -21.110312 35.129992 -2.381902 -1.419597 6.136590 0.858401 -3.424142 21.673795 -4.550506 -0.000002 0.000004 -1246.734647 -501.697830 -434.942539 0.000001 -0.000007 -11.106499 670.154666 -43.234418 685.449645 0.000003 0.000004 -12.874290 -401.213180 11.156206 -61.267951 2.431905 0.469614 -2.489401 28.828692 -29.240105 1.646384 0.000001 -0.000004 -18.200199 -56.278006 56.233634 51.269521 -0.000003 -0.000002 -16.279900 -13.418439 56.548174 20.199728 -1.988002 -0.073484 -2.713005 -24.613280 -27.272711 -16.516243 0.000009 0.000001 -19.547798 -1462.201324 32.770107 -354.377125 -0.000005 0.000005 -14.881199 2160.590571 36.791050 -340.957770
73.682892 -30.332994 43.425999 4370.722198 13.490222 0.565316 -0.779999 1.005800 5.403095 -21.263699 -24.591070 2.607878 0.000009 -0.000001 4.236803 6.749255 2.287046 0.361714 -0.000003 -0.000005 9.874397 20.192339 15.050728 -18.907335 0.000004 -0.000000 2.173903 0.708192 3.191084 -1.928591 2.681594 -0.377600 5.432496 -2.361446 -6.102117 -28.464912 5.161502 0.000000 -0.000004 134.939225 -109.259982 65.643295 -0.000000 0.000002 -10.869103 60.418119 -18.293987 43.814735 0.000003 -0.000001 -13.344780 22.287484 -21.303696 30.438328 -2.381906 -1.419605 6.136602 1.121998 -2.829891 20.671282 -4.550511 0.000001 0.000004 -1247.396683 -499.503209 -435.401774 0.000005 -0.000011 -11.106487 671.899861 -40.309256 689.250344 -0.000001 0.000002 -12.874302 -400.724357 11.044634 -55.684340 2.431893 0.469610 -2.489403 32.015532 -32.109816 3.059174 0.000005 -0.000011 -18.200203 -64.379676 56.448150 57.330859 0.000002 0.000000 -16.279909 -11.467595 56.203718 20.781721 -1.988008 -0.073495 -2.713002 -25.908385 -28.381164 -18.418877 0.000005 0.000000 -19.547798 -1460.558582 34.520821 -354.310681 -0.000002 0.000001 -14.881199 2158.706969 34.206533 -340.045093
73.896797 -30.409292 43.081604 4370.220807 14.893700 1.430190 -0.780005 1.005804 5.403106 -22.032773 -25.948905 1.728501 0.000004 0.000000 4.236800 6.833828 2.217677 0.349126 0.000001 -0.000002 9.874400 14.910139 13.761457 -16.909694 0.000005 0.000002 2.173894 0.207984 2.539171 -2.948826 2.681603 -0.377601 5.432504 -3.068546 -5.074827 -28.767473 5.161500 0.000014 -0.000006 130.647981 -108.622062 60.767647 -0.000004 -0.000006 -10.869117 59.132697 -17.798143 40.473877 0.000010 0.000010 -13.344801 21.244798 -21.221381 24.810360 -2.381896 -1.419597 6.136600 1.450896 -2.137741 19.634437 -4.550500 -0.000006 0.000007 -1247.941459 -497.156738 -435.546629 -0.000001 -0.000008 -11.106506 673.289941 -37.546704 692.442611 0.000000 -0.000010 -12.874294 -400.079587 10.542651 -49.500946 2.431890 0.469604 -2.489391 35.524828 -34.952960 4.873018 0.000002 -0.000003 -18.200203 -72.198993 56.254189 63.161252 0.000002 0.000003 -16.279898 -9.247164 55.770315 21.469943 -1.988011 -0.073491 -2.712997 -27.404949 -29.547583 -20.512228 0.000008 -0.000007 -19.547804 -1458.961847 36.345482 -354.186399 -0.000008 0.000003 -14.881193 2157.127829 31.964906 -339.153781
74.093300 -30.479599 42.752605 4369.329932 16.339998 2.439244 -0.779992 1.005798 5.403097 -22.518586 -27.261392 0.827737 0.000016 0.000003 4.236797 6.930949 2.130187 0.333552 0.000002 -0.000007 9.874404 9.128885 12.371256 -14.679361 0.000000 0.000011 2.173905 -0.331533 1.951531 -4.110255 2.681596 -0.377604 5.432498 -3.750176 -4.042094 -29.073906 5.161503 0.000003 0.000000 126.310497 -108.225324 55.801624 -0.000001 -0.000008 -10.869090 57.780887 -17.338765 37.497930 0.000000 0.000006 -13.344803 20.064316 -20.799224 18.353678 -2.381903 -1.419604 6.136600 1.794090 -1.401972 18.515185 -4.550506 -0.000006 0.000004 -1248.293241 -494.773876 -435.426308 -0.000004 -0.000002 -11.106503 674.422386 -35.005242 695.201570 0.000010 -0.000004 -12.874287 -400.027405 9.194422 -39.340373 2.431906 0.469597 -2.489395 39.722908 -37.712329 7.139154 0.000009 -0.000005 -18.200207 -79.594121 55.728804 68.655074 0.000004 0.000005 -16.279903 -6.836214 55.196429 22.241900 -1.987995 -0.073506 -2.713003 -28.710389 -30.727826 -22.713917 -0.000005 0.000003 -19.547798 -1457.170480 38.252874 -354.277295 0.000003 0.000005 -14.881201 2155.693380 29.906195 -338.454670
